<svg xmlns="http://www.w3.org/2000/svg" width="10.031" height="9.5" viewBox="0 0 10.031 9.5">
  <defs>
    <style>
      .cls-1 {
        fill: #dbdce1;
        fill-rule: evenodd;
      }
    </style>
  </defs>
  <path id="cross" class="cls-1" d="M127.35,459.012l3.356-3.357a0.75,0.75,0,0,0,0-1.171c-0.375-.375-0.89.142-1.265,0.517l-3.356,3.356-3.543-3.4c-0.375-.376-0.89-0.845-1.265-0.47a0.75,0.75,0,0,0,0,1.171l3.356,3.357-3.356,3.357a0.883,0.883,0,0,0,.094,1.312c0.417,0.346.562,0.093,0.936-.282l3.685-3.543,3.611,3.251c0.291,0.3.725,0.916,1.1,0.62a0.923,0.923,0,0,0,0-1.358Z" transform="translate(-121 -454.344)"/>
</svg>